PathFileType	4	(X/Y/Z)	AB08\squats_1.trc
DataRate	CameraRate	NumFrames	NumMarkers	Units	OrigDataRate	OrigDataStartFrame	OrigNumFrames
200.000000	200.000000	5	35	mm	200.000000	118	317
Frame#	Time	C7			LSHO			STRN			LASI			RASI			RPSI			LGTR			RGTR			LTHC			LTHL			LTHR			LKNE			LMKNE			LSHC			LSHL			LSHR			LANK			LMANK			LMT1			LMT5			LCAL			RTHC			RTHL			RTHR			RKNE			RMKNE			RSHC			RSHL			RSHR			RANK			RMANK			RMT1			RMT5			RCAL			LPSI			
		X1	Y1	Z1	X2	Y2	Z2	X3	Y3	Z3	X4	Y4	Z4	X5	Y5	Z5	X6	Y6	Z6	X7	Y7	Z7	X8	Y8	Z8	X9	Y9	Z9	X10	Y10	Z10	X11	Y11	Z11	X12	Y12	Z12	X13	Y13	Z13	X14	Y14	Z14	X15	Y15	Z15	X16	Y16	Z16	X17	Y17	Z17	X18	Y18	Z18	X19	Y19	Z19	X20	Y20	Z20	X21	Y21	Z21	X22	Y22	Z22	X23	Y23	Z23	X24	Y24	Z24	X25	Y25	Z25	X26	Y26	Z26	X27	Y27	Z27	X28	Y28	Z28	X29	Y29	Z29	X30	Y30	Z30	X31	Y31	Z31	X32	Y32	Z32	X33	Y33	Z33	X34	Y34	Z34	X35	Y35	Z35	

119	30.87	-3566.015899403635	1125.75918267408	2525.094920492235	-3641.899706329616	1048.737064351319	2674.835548728136	-3580.773826669809	794.6293044700178	2542.993762176122	-3378.1587709761	694.2844083233075	2624.286358237072	-3377.8870750848	704.1582400225374	2392.623572715332	-3173.540015670288	766.6868161884237	2442.312339939802	-3249.603634604469	718.7590054767225	2713.764968100762	-3299.994210420211	693.9293141911312	2309.989083264463	-3455.332355960304	642.1723354347251	2708.42141686872	-3357.149301053432	484.9717370675584	2731.226844502549	-3481.913738502648	503.3176776543667	2783.310002161512	-3526.555076498059	432.5056388928717	2786.500210959922	-3578.984623849832	394.416699634938	2687.294791293971	-3442.26204773058	400.1803009775811	2735.568517679669	-3533.517605637217	303.434487149985	2696.402948624827	-3415.375892608604	234.86961290414	2787.180024322631	-3355.880405655083	96.72062871888635	2762.828335226311	-3395.002344273717	103.8616716712519	2672.825598422069	-3506.769405198415	53.10818575468609	2715.520626593397	-3469.371879086088	49.36176561812066	2812.368933874963	-3294.517477398812	86.01789696490215	2699.305390684651	-3466.975190533719	522.8556866454486	2256.867564172911	-3342.717971874988	468.3432580658367	2316.445722407404	-3491.092438082639	607.2469336337947	2402.363259925257	-3590.361877211558	432.2696028803369	2253.478888917921	-3608.594313869216	404.704996579812	2370.090266243395	-3446.944750329538	245.7076060373407	2248.521342186254	-3448.144857445345	363.6513271918049	2310.64212988847	-3582.268765810229	288.829539285125	2306.430524747645	-3378.627134390699	103.7809998996188	2270.464869259051	-3425.894387367013	107.6440753692023	2358.957616061321	-3535.154147952328	56.65908772997322	2303.349243109326	-3481.585957750105	52.93368623364878	2222.948223668061	-3311.109705376995	94.90148178710999	2333.599857563173	-3162.285224685431	773.1268070759093	2551.645601343901	
120	30.875	-3566.670261750537	1121.901211336829	2525.140483932398	-3642.53932402776	1044.773515613988	2674.785682554527	-3581.01696724239	790.7905482424907	2542.983892436479	-3377.960812469624	692.1413285708729	2624.496184756542	-3377.236401396598	701.9821677560284	2392.697398623842	-3173.191433961907	763.9601337723265	2442.485523259427	-3249.33046093245	716.5410983015073	2713.884014054762	-3298.948178027079	691.7376619799782	2310.452496938222	-3454.741604773914	640.9822491076426	2708.186942078572	-3357.314219888236	483.4091713022203	2731.511660625661	-3482.091184166403	502.6483542065588	2783.600065334533	-3527.082558088985	432.1775835412799	2786.773816573191	-3579.567255157746	394.1372267848055	2687.556134086356	-3442.826273684079	399.9776404637531	2735.639143765685	-3533.997073214463	303.2267414987173	2696.520309489033	-3415.640872333731	234.7912092087281	2787.095336673067	-3355.978022261795	96.77309479461061	2762.63631723965	-3395.227085353226	103.8562240695391	2672.664577173734	-3506.830483130081	53.09314266633984	2715.545408349889	-3469.364305308841	49.36393295575049	2812.321351994677	-3294.677983796773	86.06904383568569	2699.026849910184	-3466.953128167835	521.7776861666988	2257.236845487699	-3342.75381103022	466.4966365536843	2316.54599071406	-3490.321903263233	605.8143971499067	2403.03071035518	-3590.886465854024	431.9504971533216	2253.78861031606	-3609.091428826177	404.2573092210163	2370.439149158175	-3447.203259489362	245.6638256369786	2248.788506860861	-3448.62556486629	363.5307569046725	2311.015864744158	-3582.625061094428	288.5524527552739	2306.706829222816	-3378.674919690337	103.8320216087088	2270.633801064823	-3425.99970709617	107.5670079370224	2359.104529589694	-3535.198701778386	56.63994810955626	2303.340953352576	-3481.56060118403	52.97022274348024	2223.008433154334	-3311.171710221337	94.92625506748715	2333.730227060669	-3162.015628196108	770.4799537885384	2551.781329733588	
121	30.88	-3567.322881499502	1118.073832971144	2525.180016015599	-3643.177745274706	1040.831704137703	2674.725818589429	-3581.261096905546	786.9771866953391	2542.969485902794	-3377.75126080786	690.0189565739519	2624.709946653983	-3376.595498571223	699.8306372480595	2392.782307445802	-3172.841659094899	761.2642333307899	2442.658142241827	-3249.041401424675	714.3415667565665	2714.000426920416	-3297.926163834411	689.5687557378146	2310.919218152448	-3454.134476441768	639.8043933716926	2707.957217071012	-3357.456725251997	481.8675257547978	2731.79196014695	-3482.242381427187	501.9935496442508	2783.885447572902	-3527.585883172927	431.8597899456956	2787.043039752196	-3580.12386071501	393.8692736384673	2687.811759385133	-3443.373535750676	399.7764616058651	2735.715401123946	-3534.455615121068	303.0280612768415	2696.634908639669	-3415.89629370008	234.7130228427659	2787.01397458519	-3356.070904156811	96.82286225529299	2762.448969898435	-3395.447340395691	103.8517213211397	2672.506594432122	-3506.888651468958	53.08130472985544	2715.569445247205	-3469.357263394143	49.36712194929826	2812.273687513409	-3294.832988696831	86.11694897152786	2698.758377926057	-3466.928617919808	520.7179935416206	2257.626419713165	-3342.783480077604	464.6803285455851	2316.653091979314	-3489.541424827228	604.390047679384	2403.721765450132	-3591.399432663527	431.6350699430871	2254.130316343221	-3609.566369899459	403.8108849489696	2370.822913130104	-3447.458861092452	245.6205189360412	2249.058728608999	-3449.089363809407	363.4085714110665	2311.395580736137	-3582.965744297975	288.278225457991	2307.010400982643	-3378.72085440425	103.8866311553542	2270.791911891294	-3426.091850541489	107.4862666777131	2359.24798313417	-3535.23601267299	56.62167546898738	2303.337938453916	-3481.541650686063	53.00768941294562	2223.066879893287	-3311.223268223627	94.94383556144111	2333.844982585767	-3161.74040642806	767.8600318810176	2551.915442216997	
122	30.885	-3567.973396110785	1114.279136921555	2525.213577232313	-3643.815389308843	1036.913174879542	2674.655740052676	-3581.504551335773	783.190397908146	2542.950305221634	-3377.5295447906	687.9181430153596	2624.927836367427	-3375.963986387964	697.7021465138799	2392.877938791232	-3172.490361014299	758.5991647998104	2442.829355647069	-3248.73553799419	712.1608485006265	2714.114148720647	-3296.928120797602	687.4212294820499	2311.388006540728	-3453.511578879758	638.6390425013504	2707.733803265417	-3357.577485728554	480.3463411470701	2732.068202725049	-3482.367703414861	501.352587294659	2784.167103700844	-3528.06479577233	431.5514466081066	2787.308909170531	-3580.655241522421	393.6128527306805	2688.062632810263	-3443.90406908401	399.5760154735212	2735.798283934995	-3534.893554303908	302.8381206964148	2696.747676961553	-3416.142300162867	234.6347713464399	2786.936921289007	-3356.158760283135	96.86995744937616	2762.266491652306	-3395.662169168554	103.8479668817996	2672.352076123139	-3506.94428611521	53.07298421605844	2715.592595772346	-3469.350507415687	49.37116653304572	2812.225986185738	-3294.982494799031	86.16190534883691	2698.500459623248	-3466.901954113577	519.6742729143065	2258.034556905286	-3342.808805991588	462.8922946032905	2316.768794318327	-3488.753917274362	602.9747544249444	2404.432951210301	-3591.900668416325	431.3226870756187	2254.50212054656	-3610.020539832879	403.3658540742152	2371.239123036398	-3447.711687576035	245.5777917923877	2249.332488736909	-3449.537100608035	363.2843697071855	2311.782049726738	-3583.291708576454	288.006575690316	2307.339472945248	-3378.765130088224	103.9447944003137	2270.940371014199	-3426.171954662307	107.4015849892422	2359.388854985282	-3535.266357933354	56.60404431686703	2303.340053504412	-3481.528537405317	53.04611218392006	2223.123806105802	-3311.265559306338	94.95419614028488	2333.947497041197	-3161.459045580547	765.2670798682664	2552.047004134019	
123	30.89	-3568.621334712047	1110.519347097434	2525.241274371703	-3644.452597348794	1033.019738093146	2674.575312847408	-3581.745712035671	779.431574806666	2542.925868651553	-3377.29534080086	685.8397279436562	2625.149892041309	-3375.341405090621	695.5952072901606	2392.983723136542	-3172.137268458815	755.9649166372844	2442.998365005916	-3248.412320088269	709.9994248922061	2714.22514721467	-3295.953729948699	685.2937174975965	2311.857528407696	-3452.873749698488	637.4864077040542	2707.51834060586	-3357.677361122297	478.845167966242	2732.341023011506	-3482.467676795235	500.7247523115204	2784.446160752024	-3528.519106337663	431.2517490758603	2787.572638943276	-3581.162340115389	393.3679630348394	2688.309977916689	-3444.418044553215	399.3756229601604	2735.888805509788	-3535.311362668079	302.6565933514516	2696.859707140341	-3416.379018096583	234.5562371908019	2786.86515639826	-3356.241343893716	96.91441342785986	2762.089048750227	-3395.870647113634	103.8447777084585	2672.201458393056	-3506.997794973651	53.0684566293403	2715.614765404875	-3469.343780081605	49.37590209877811	2812.178312469704	-3295.126576128906	86.20427355049743	2698.253355819282	-3466.873292362641	518.6440514863633	2258.459342322009	-3342.831646225337	461.1303783335704	2316.894798553047	-3487.962449783665	601.5695281202363	2405.160482239123	-3592.390094229485	431.0127501015659	2254.901778482018	-3610.455435205376	402.9224110503768	2371.684973140305	-3447.961760877343	245.5357197331705	2249.610232046104	-3449.969720898376	363.1577560518135	2312.176053264507	-3583.603909220737	287.7372296342504	2307.691961012538	-3378.807909020304	104.0063935001407	2271.080358129454	-3426.241176394309	107.3127550449637	2359.528013045028	-3535.290098294224	56.58684496579817	2303.347105638841	-3481.520597766656	53.08551697705795	2223.179469159573	-3311.299826229762	94.9573821505489	2334.041130018984	-3161.171192493967	762.7010980411123	2552.175138664496	
